<svg preserveAspectRatio="none" overflow="visible" style="display: block;" width="146.245" height="13.8239" viewBox="0 0 146.245 13.8239" fill="none" xmlns="http://www.w3.org/2000/svg">
<g id="Group">
<path id="Vector" d="M143.528 6.32841C145.015 6.66362 146.245 7.84359 146.245 9.65377C146.245 11.8662 144.461 13.6496 141.352 13.6496C139.947 13.6496 138.676 13.2875 138 12.845L138.581 10.8874C139.082 11.1958 140.149 11.6114 141.177 11.6114C142.785 11.6114 143.582 10.6326 143.582 9.5465C143.582 8.05813 142.271 7.36087 140.852 7.36087H139.947V5.53729H140.798C141.839 5.53729 143.177 4.96072 143.177 3.68689C143.177 2.76169 142.555 2.07784 141.325 2.07784C140.406 2.07784 139.514 2.4801 139 2.80191L138.446 0.951509C139.136 0.495612 140.487 0.0397155 141.92 0.0397155C144.475 0.0397155 145.826 1.52809 145.826 3.28463C145.826 4.65232 145.002 5.79206 143.528 6.32841Z" fill="#717171"/>
<g id="Group_2">
<path id="Vector_2" d="M136.851 13.4493H128.498V11.8537L129.985 10.2714C132.512 7.68354 133.986 5.98064 133.986 4.19728C133.986 3.04413 133.364 2.0787 131.904 2.0787C130.931 2.0787 130.039 2.58823 129.417 3.04413L128.687 1.19372C129.512 0.563513 130.89 0.000347307 132.431 0.000347307C135.283 0.000347307 136.594 1.81053 136.594 3.95592C136.594 6.30245 134.986 8.21989 133.039 10.1776L131.931 11.2637V11.3039H136.838V13.4627L136.851 13.4493Z" fill="#717171"/>
<path id="Vector_3" d="M6.10352e-05 1.85109C0.716422 1.70359 2.16263 1.59632 3.51425 1.59632C5.17675 1.59632 6.19047 1.75723 7.06903 2.26676C7.90704 2.70924 8.51528 3.52718 8.51528 4.59988C8.51528 5.67257 7.89353 6.65141 6.52839 7.14753V7.18776C7.90705 7.5632 8.92075 8.58226 8.92075 10.1243C8.92075 11.197 8.42067 12.0551 7.67728 12.6585C6.79872 13.3424 5.33897 13.7446 2.94659 13.7446C1.60848 13.7446 0.608292 13.6508 6.10352e-05 13.5703V1.85109ZM2.68978 6.42346H3.58186C5.01458 6.42346 5.77148 5.83347 5.77148 4.9485C5.77148 4.06352 5.08216 3.5674 3.83867 3.5674C3.24395 3.5674 2.90603 3.60763 2.67625 3.63445V6.41005L2.68978 6.42346ZM2.68978 11.7199C2.96011 11.7601 3.28449 11.7601 3.74405 11.7601C4.97402 11.7601 6.06884 11.3042 6.06884 10.0438C6.06884 8.78339 4.98755 8.36772 3.6224 8.36772H2.68978V11.7333V11.7199Z" fill="#717171"/>
<path id="Vector_4" d="M10.787 1.8503C11.6655 1.7028 12.9631 1.60894 14.4093 1.60894C16.1935 1.60894 17.437 1.87712 18.302 2.54756C19.0184 3.11072 19.4104 3.94206 19.4104 5.04157C19.4104 6.57017 18.3291 7.60264 17.2883 7.97808V8.03172C18.1263 8.36693 18.5859 9.15805 18.8967 10.2576C19.2752 11.5984 19.6401 13.1673 19.8834 13.6232H17.0991C16.8964 13.2879 16.6125 12.3091 16.2611 10.8475C15.9367 9.35918 15.4231 8.95692 14.3148 8.9301H13.4902V13.6232H10.8005V1.8503H10.787ZM13.4768 6.98584H14.5445C15.8961 6.98584 16.7071 6.3154 16.7071 5.26952C16.7071 4.17001 15.9637 3.62025 14.7067 3.60684C14.0444 3.60684 13.666 3.66048 13.4768 3.7007V6.98584Z" fill="#717171"/>
<path id="Vector_5" d="M24.3295 10.5663L23.478 13.6235H20.6531L24.3295 1.68971H27.8978L31.6283 13.6235H28.6952L27.7626 10.5663H24.316H24.3295ZM27.3842 8.55497L26.6408 6.02072C26.4245 5.31006 26.2082 4.42509 26.0325 3.71443H25.992C25.8163 4.42509 25.6406 5.32347 25.4378 6.02072L24.7215 8.55497H27.3842Z" fill="#717171"/>
<path id="Vector_6" d="M35.9678 1.68971H33.2375V13.6235H35.9678V1.68971Z" fill="#717171"/>
<path id="Vector_7" d="M38.3321 13.6235V1.68971H41.5084L44.0089 6.06095C44.7253 7.32137 45.4416 8.80974 45.9688 10.1506H46.0228C45.8471 8.56838 45.793 6.95933 45.793 5.17598V1.68971H48.2936V13.6235H45.4416L42.8736 9.02428C42.1572 7.75045 41.3733 6.20845 40.7921 4.81394H40.738C40.8056 6.40958 40.8461 8.08567 40.8461 10.0299V13.6235H38.3456H38.3321Z" fill="#717171"/>
<path id="Vector_8" d="M54.3361 10.8488C55.066 11.2243 56.1879 11.5863 57.3502 11.5863C58.5937 11.5863 59.256 11.0768 59.256 10.2991C59.256 9.52135 58.6883 9.1325 57.2421 8.62297C55.2417 7.93912 53.9441 6.83961 53.9441 5.09647C53.9441 3.05835 55.6607 1.50294 58.4991 1.50294C59.8508 1.50294 60.851 1.78452 61.5673 2.10633L60.9591 4.27854C60.4725 4.05059 59.621 3.71538 58.4451 3.71538C57.2691 3.71538 56.7015 4.25173 56.7015 4.86853C56.7015 5.63282 57.3773 5.96804 58.9316 6.54462C61.0537 7.32232 62.0539 8.42183 62.0539 10.0979C62.0539 12.0958 60.4995 13.7987 57.2015 13.7987C55.8229 13.7987 54.4713 13.4501 53.7955 13.0747L54.3496 10.8488H54.3361Z" fill="#717171"/>
<path id="Vector_9" d="M66.2156 3.95578H62.9852V1.68971H72.2168V3.95578H68.9458V13.6235H66.2156V3.95578Z" fill="#717171"/>
<path id="Vector_10" d="M75.1892 10.5663L74.3377 13.6235H71.5127L75.1892 1.68971H78.7575L82.488 13.6235H79.5549L78.6223 10.5663H75.1757H75.1892ZM78.2438 8.55497L77.5005 6.02072C77.2842 5.31006 77.0679 4.42509 76.8922 3.71443H76.8517C76.676 4.42509 76.5002 5.32347 76.2975 6.02072L75.5811 8.55497H78.2438Z" fill="#717171"/>
<path id="Vector_11" d="M84.9353 3.95578H81.7048V1.68971H90.95V3.95578H87.6655V13.6235H84.9353V3.95578Z" fill="#717171"/>
<path id="Vector_12" d="M95.127 1.68971H92.3967V13.6235H95.127V1.68971Z" fill="#717171"/>
<path id="Vector_13" d="M108.494 7.53518C108.494 11.4505 106.102 13.8239 102.587 13.8239C99.0733 13.8239 96.9377 11.1555 96.9377 7.74972C96.9377 4.16959 99.2355 1.50125 102.79 1.50125C106.345 1.50125 108.494 4.25004 108.494 7.53518ZM99.8032 7.69608C99.8032 10.0292 100.911 11.6785 102.723 11.6785C104.534 11.6785 105.615 9.94874 105.615 7.62904C105.615 5.48364 104.574 3.64665 102.709 3.64665C100.844 3.64665 99.8032 5.37637 99.8032 7.69608Z" fill="#717171"/>
<path id="Vector_14" d="M110.291 13.6235V1.68971H113.467L115.968 6.06095C116.684 7.32137 117.387 8.80974 117.928 10.1506H117.982C117.806 8.56838 117.752 6.95933 117.752 5.17598V1.68971H120.253V13.6235H117.401L114.833 9.02428C114.116 7.75045 113.332 6.20845 112.751 4.81394H112.697C112.765 6.40958 112.805 8.08567 112.805 10.0299V13.6235H110.305H110.291Z" fill="#717171"/>
</g>
</g>
</svg>
