<svg preserveAspectRatio="none" overflow="visible" style="display: block;" width="27.9156" height="27.5682" viewBox="0 0 27.9156 27.5682" fill="none" xmlns="http://www.w3.org/2000/svg">
<g id="clippath">
<path id="Vector" d="M1.06911 8.71179C0.799499 9.41866 0.549192 10.1255 0.395128 10.8324C1.14619 10.8324 1.8587 10.9853 2.64828 11.31L7.77092 13.3352C8.67605 13.6408 9.50412 13.6408 10.3322 13.3352C11.1603 13.0295 11.7573 12.4372 12.104 11.5775L13.8757 7.24072C14.2224 6.41922 14.1838 5.5595 13.7987 4.73799C13.452 3.91648 12.8165 3.32423 11.9114 2.98035L7.92496 1.41375C4.6511 2.94214 2.39791 5.36845 1.06911 8.73089M11.0448 0.362989L12.701 1.03166C14.1646 1.54749 15.1853 2.56004 15.8593 3.91648C16.4948 5.29203 16.5333 6.64847 15.9749 8.02402L14.2416 12.399C13.6446 13.7746 12.6624 14.7489 11.2373 15.3029C9.81225 15.857 8.40643 15.857 6.98133 15.3029L1.8587 13.2587C-0.259684 12.571 -0.0670713 13.4307 0.0869928 15.0737C0.279573 17.0606 0.857318 18.9329 1.89725 20.7287C3.28383 23.155 5.45999 25.1037 7.98279 26.3264L8.44496 24.9891L14.9927 27.5682C19.4028 27.2626 22.8307 25.2948 25.3535 21.7795C25.315 21.4738 25.2379 21.1108 25.0839 20.6905C24.6987 19.869 24.0632 19.2385 23.1581 18.9329L18.3435 16.9842C18.2087 17.0415 18.0932 17.0797 17.9776 17.0988C17.8236 17.137 17.6695 17.1561 17.5155 17.1561C16.5526 17.1561 15.763 16.3728 15.763 15.4176C15.763 14.4623 16.5526 13.679 17.5155 13.679C18.3243 13.679 19.0176 14.2331 19.2102 14.9591L23.9862 16.8886C24.8528 17.1943 25.7194 17.1943 26.6245 16.8886C27.0097 16.6976 27.3756 16.5066 27.6837 16.1818C28.3577 12.3417 27.5682 8.90284 25.238 5.69323L17.4384 2.63646L18.1125 0.993447L18.2473 0.630458C16.8607 0.229257 15.4163 0 13.9527 0C12.9898 0 12.0077 0.0955242 11.0448 0.324782" fill="black"/>
</g>
</svg>
