<svg preserveAspectRatio="none" overflow="visible" style="display: block;" width="160.863" height="22.6537" viewBox="0 0 160.863 22.6537" fill="none" xmlns="http://www.w3.org/2000/svg">
<g id="Now_Logo_1" clip-path="url(#clip0_0_32)">
<path id="Path 18643" d="M160.863 1.68321C160.863 1.35033 160.764 1.02493 160.579 0.748153C160.394 0.471375 160.132 0.255652 159.824 0.128265C159.517 0.000878062 159.178 -0.0324522 158.852 0.0324892C158.525 0.0974305 158.225 0.257727 157.99 0.493107C157.755 0.728488 157.594 1.02838 157.529 1.35486C157.464 1.68135 157.498 2.01975 157.625 2.32729C157.752 2.63483 157.968 2.89769 158.245 3.08263C158.522 3.26757 158.847 3.36628 159.18 3.36628C159.626 3.36628 160.054 3.18895 160.37 2.87332C160.686 2.55768 160.863 2.12959 160.863 1.68321ZM160.702 1.68321C160.702 1.98428 160.613 2.27861 160.446 2.52896C160.279 2.77931 160.041 2.97445 159.763 3.08969C159.485 3.20493 159.178 3.2351 158.883 3.17639C158.588 3.11768 158.317 2.97272 158.104 2.75984C157.891 2.54697 157.746 2.27574 157.687 1.98045C157.628 1.68517 157.658 1.37909 157.774 1.10093C157.889 0.822777 158.084 0.585029 158.334 0.417759C158.585 0.250488 158.879 0.161207 159.18 0.161207C159.584 0.161207 159.971 0.321555 160.256 0.60698C160.542 0.892406 160.702 1.27953 160.702 1.68321ZM160.057 2.76951L159.658 1.92331C159.751 1.88443 159.831 1.8198 159.888 1.73703C159.976 1.60424 160.021 1.44762 160.017 1.28841C160.018 1.17872 159.999 1.0698 159.958 0.967688C159.922 0.873572 159.861 0.790641 159.782 0.726995C159.697 0.660654 159.596 0.617913 159.489 0.603073C159.461 0.597843 159.432 0.594525 159.403 0.593144C159.372 0.591555 159.347 0.590959 159.327 0.590959H158.476V2.76951H158.781V1.98765H159.341L159.707 2.76971L160.057 2.76951ZM159.6 1.59027C159.559 1.63253 159.507 1.66176 159.449 1.67428C159.427 1.67943 159.404 1.68295 159.381 1.6848C159.357 1.68679 159.336 1.68798 159.316 1.68798H158.782V0.889045H159.316C159.336 0.889045 159.357 0.890237 159.381 0.892223C159.404 0.894007 159.427 0.898065 159.449 0.904337C159.507 0.916708 159.559 0.945879 159.6 0.988142C159.637 1.02837 159.665 1.07648 159.682 1.12894C159.715 1.23275 159.715 1.34428 159.682 1.44808C159.665 1.50086 159.637 1.54928 159.6 1.58968" fill="#717171"/>
<path id="Path 18644" d="M91.2384 13.5856C90.177 13.0612 89.059 12.6601 87.9063 12.3901C86.6002 12.061 85.6129 11.7781 84.9445 11.5415C84.276 11.3049 83.8259 11.0581 83.594 10.801C83.3623 10.5432 83.2381 10.2065 83.2469 9.86003C83.2469 9.22242 83.5503 8.72104 84.157 8.3559C84.7638 7.99076 85.5557 7.82877 86.5328 7.86995C87.551 7.91125 88.3789 8.1632 89.0164 8.62579C89.3827 8.88938 89.6821 9.23535 89.8902 9.63582C90.1247 10.0868 90.1168 10.6163 90.3327 11.0693C90.4305 11.2654 90.5665 11.4402 90.7325 11.5834C90.8985 11.7266 91.0914 11.8353 91.2998 11.9033C91.5844 11.9957 91.8885 12.0107 92.1808 11.9466C92.4732 11.8825 92.7431 11.7417 92.963 11.5387C93.4712 11.0655 93.5473 10.4032 93.4354 9.74803C93.1046 7.80759 91.6994 6.35211 89.9118 5.63301C88.8246 5.21577 87.6672 5.01155 86.5028 5.03148C85.334 5.00593 84.1719 5.21584 83.0859 5.6487C82.1837 6.00584 81.4005 6.60993 80.8259 7.39174C80.2845 8.16324 80.0035 9.08737 80.0238 10.0296C80.0015 10.7577 80.186 11.4771 80.556 12.1045C80.9107 12.6753 81.5071 13.174 82.3453 13.6007C83.4341 14.1174 84.5743 14.5181 85.747 14.7962C87.0526 15.1461 88.0244 15.4393 88.6623 15.6756C89.3002 15.9119 89.7193 16.1613 89.9196 16.4239C90.1314 16.7227 90.2373 17.0837 90.2204 17.4496C90.2318 17.7816 90.1593 18.111 90.0096 18.4076C89.86 18.7042 89.6381 18.9582 89.3643 19.1464C88.7936 19.5579 88.0042 19.7636 86.9963 19.7636C85.8858 19.7636 84.9576 19.5142 84.2119 19.0153C83.5742 18.5572 83.0936 17.9134 82.8356 17.1718C82.5997 16.5434 82.3789 15.9125 81.6786 15.6811C81.2577 15.5424 80.7989 15.5765 80.4031 15.776C80.0073 15.9756 79.707 16.3241 79.5682 16.745C79.2931 17.5791 79.7912 18.5756 80.1739 19.308C80.557 20.0846 81.1253 20.755 81.8286 21.2602C83.1164 22.1362 84.7542 22.6021 86.7804 22.6021C88.8886 22.6021 90.5418 22.1341 91.7401 21.1982C92.9384 20.2623 93.5374 18.9715 93.5371 17.3257C93.56 16.5633 93.3761 15.809 93.0049 15.1428C92.6502 14.5414 92.0615 14.0222 91.2386 13.585M150.014 9.55162C149.49 8.18888 148.559 7.02105 147.346 6.20774C146.158 5.4237 144.718 5.03168 143.026 5.03168C141.533 4.99889 140.06 5.37671 138.768 6.12393C137.54 6.85929 136.55 7.9319 135.915 9.21402C135.233 10.5466 134.893 12.1199 134.893 13.9339C134.859 15.5009 135.215 17.0516 135.93 18.4463C136.592 19.7112 137.6 20.7617 138.836 21.4751C140.161 22.218 141.661 22.5922 143.179 22.5588C144.726 22.5761 146.246 22.1522 147.561 21.3368C148.32 20.8809 148.981 20.28 149.508 19.5684C149.743 19.2191 149.832 18.792 149.757 18.3777C149.682 17.9634 149.449 17.5947 149.106 17.3498C148.764 17.105 148.34 17.0033 147.923 17.0664C147.507 17.1295 147.132 17.3524 146.877 17.6877C145.921 18.8872 144.541 19.4639 143.027 19.4639C141.5 19.4639 140.331 19.03 139.521 18.0307C138.852 17.2045 138.464 16.6193 138.348 15.2295H149.115C149.342 15.227 149.565 15.1776 149.772 15.0844C149.978 14.9912 150.163 14.8562 150.315 14.6881C150.466 14.5199 150.582 14.3222 150.653 14.1073C150.725 13.8924 150.751 13.665 150.73 13.4394C150.734 12.1105 150.492 10.7923 150.015 9.55162M138.421 12.2231C138.591 11.1173 138.955 10.1927 139.522 9.51111C140.332 8.53682 141.541 8.04974 143.15 8.04987C144.606 8.04987 145.689 8.4926 146.402 9.37805C146.938 10.0445 147.278 11.0105 147.422 12.2231H138.421ZM121.377 8.5398C120.909 7.51084 120.081 6.68838 119.05 6.2274C117.93 5.73933 116.72 5.49165 115.498 5.50035C115.473 5.49876 109.975 5.49618 109.975 5.49618C109.775 5.49618 109.577 5.53559 109.392 5.61216C109.207 5.68873 109.039 5.80095 108.898 5.94243C108.756 6.08391 108.644 6.25187 108.567 6.43672C108.491 6.62157 108.451 6.8197 108.451 7.01978C108.451 7.21986 108.491 7.41798 108.567 7.60283C108.644 7.78768 108.756 7.95564 108.898 8.09712C109.039 8.2386 109.207 8.35083 109.392 8.42739C109.577 8.50396 109.775 8.54337 109.975 8.54337L115.289 8.54476C116.62 8.54476 117.557 8.65081 118.104 9.25671C118.508 9.70454 118.755 10.3311 118.85 11.1318C118.295 11.2142 117.352 11.3658 116.913 11.4269C115.86 11.5735 114.857 11.7305 113.904 11.898C113.04 12.0452 112.185 12.2395 111.342 12.4799C110.551 12.7223 109.807 13.0969 109.142 13.5878C108.562 14.0216 108.098 14.5909 107.79 15.2458C107.473 15.9577 107.318 16.7308 107.334 17.5098C107.326 18.3984 107.551 19.2736 107.986 20.048C108.44 20.8362 109.108 21.4794 109.913 21.9026C110.761 22.3685 111.814 22.6016 113.072 22.6019C114.654 22.6019 115.987 22.285 117.072 21.6512C117.655 21.31 118.808 19.9658 118.884 19.7805V20.7059C118.884 21.1101 119.045 21.4978 119.331 21.7837C119.617 22.0695 120.004 22.2301 120.409 22.2301C120.813 22.2301 121.2 22.0695 121.486 21.7837C121.772 21.4978 121.933 21.1101 121.933 20.7059V11.5393C121.921 11.0677 121.894 10.6195 121.851 10.1947C121.794 9.61889 121.634 9.05806 121.378 8.5388M118.784 14.8524C118.767 15.4303 118.663 16.0024 118.477 16.5498C118.335 17.1381 118.061 17.6864 117.676 18.1528C117.237 18.69 116.684 19.1223 116.057 19.418C115.304 19.7657 114.481 19.9351 113.652 19.9131C113.059 19.9347 112.468 19.8219 111.924 19.5831C111.508 19.3938 111.158 19.0846 110.918 18.6952C110.699 18.3268 110.585 17.9056 110.588 17.477C110.576 17.0728 110.682 16.6738 110.895 16.3297C111.11 16.0045 111.395 15.7308 111.729 15.5282C112.107 15.2952 112.51 15.1054 112.931 14.9624C113.532 14.7791 114.143 14.6348 114.762 14.5303C115.448 14.4098 116.216 14.2867 117.066 14.1609C117.61 14.0803 118.198 13.9925 118.818 13.899C118.812 14.177 118.802 14.4914 118.787 14.8522M105.337 19.0193C103.951 19.0193 102.973 18.9087 102.403 18.2771C101.913 17.7334 101.641 16.9401 101.589 15.8972L101.591 8.5533H104.301C104.505 8.55901 104.709 8.52369 104.899 8.44944C105.089 8.37519 105.263 8.26351 105.41 8.121C105.556 7.9785 105.673 7.80806 105.752 7.61977C105.832 7.43148 105.873 7.22915 105.873 7.02474C105.873 6.82034 105.832 6.61801 105.752 6.42971C105.673 6.24142 105.556 6.07098 105.41 5.92848C105.263 5.78598 105.089 5.6743 104.899 5.60005C104.709 5.52579 104.505 5.49048 104.301 5.49618H95.4944C95.0964 5.5073 94.7185 5.67321 94.4409 5.95866C94.1633 6.24411 94.008 6.62658 94.008 7.02474C94.008 7.42291 94.1633 7.80537 94.4409 8.09082C94.7185 8.37627 95.0964 8.54219 95.4944 8.5533H98.4137V15.8972C98.4258 16.3888 98.4543 16.8561 98.4991 17.2991C98.559 17.8989 98.7259 18.4831 98.992 19.024C99.4793 20.0967 100.342 20.9541 101.418 21.4345C102.644 21.9674 103.97 22.2275 105.307 22.1967H105.338C105.759 22.1967 106.163 22.0294 106.461 21.7314C106.759 21.4335 106.926 21.0294 106.926 20.608C106.926 20.1866 106.759 19.7825 106.461 19.4846C106.163 19.1867 105.759 19.0193 105.337 19.0193ZM133.677 19.0193C132.29 19.0193 131.313 18.9087 130.742 18.2771C130.252 17.7334 129.981 16.9401 129.928 15.8972L129.93 8.5533H132.64C132.844 8.55901 133.047 8.52369 133.238 8.44944C133.428 8.37519 133.602 8.26351 133.748 8.121C133.895 7.9785 134.011 7.80806 134.091 7.61977C134.17 7.43148 134.211 7.22915 134.211 7.02474C134.211 6.82034 134.17 6.61801 134.091 6.42971C134.011 6.24142 133.895 6.07098 133.748 5.92848C133.602 5.78598 133.428 5.6743 133.238 5.60005C133.047 5.52579 132.844 5.49048 132.64 5.49618H123.834C123.436 5.5073 123.058 5.67321 122.781 5.95866C122.503 6.24411 122.348 6.62658 122.348 7.02474C122.348 7.42291 122.503 7.80537 122.781 8.09082C123.058 8.37627 123.436 8.54219 123.834 8.5533H126.754V15.8972C126.766 16.3888 126.794 16.8561 126.839 17.2991C126.899 17.8989 127.066 18.4831 127.332 19.024C127.819 20.0966 128.682 20.9539 129.757 21.4345C130.983 21.9674 132.31 22.2275 133.646 22.1967H133.677C134.099 22.1967 134.503 22.0294 134.801 21.7314C135.099 21.4335 135.266 21.0294 135.266 20.608C135.266 20.1866 135.099 19.7825 134.801 19.4846C134.503 19.1867 134.099 19.0193 133.677 19.0193M159.274 5.49618H159.243C157.907 5.46543 156.58 5.72557 155.354 6.25858C154.278 6.73898 153.415 7.59628 152.928 8.66888C152.662 9.20981 152.495 9.79403 152.435 10.3938C152.39 10.8364 152.362 11.3037 152.35 11.7957V20.608C152.35 21.0294 152.517 21.4335 152.815 21.7314C153.113 22.0294 153.517 22.1967 153.939 22.1967C154.36 22.1967 154.764 22.0294 155.062 21.7314C155.36 21.4335 155.527 21.0294 155.527 20.608L155.525 11.7957C155.578 10.7539 155.85 9.96059 156.34 9.41578C156.91 8.78426 157.888 8.67365 159.274 8.67365C159.695 8.67365 160.099 8.50626 160.397 8.20832C160.695 7.91037 160.863 7.50627 160.863 7.08492C160.863 6.66356 160.695 6.25946 160.397 5.96151C160.099 5.66357 159.695 5.49618 159.274 5.49618ZM78.2855 1.73903C78.2857 1.32877 78.1228 0.935242 77.8329 0.645012C77.5429 0.354782 77.1495 0.191617 76.7393 0.191406H64.4961V7.31687C64.4961 7.72796 64.6594 8.12221 64.9501 8.41289C65.2408 8.70357 65.635 8.86688 66.0461 8.86688C66.4572 8.86688 66.8514 8.70357 67.1421 8.41289C67.4328 8.12221 67.5961 7.72796 67.5961 7.31687V3.28705H76.7393C76.9425 3.28692 77.1437 3.24674 77.3315 3.16882C77.5192 3.09089 77.6897 2.97675 77.8333 2.8329C77.9769 2.68905 78.0907 2.51831 78.1683 2.33045C78.2459 2.14259 78.2857 1.94129 78.2855 1.73804M76.7393 19.1039H67.5884V15.9639C67.5884 14.6147 67.696 13.6631 68.3104 13.1084C68.84 12.631 69.6121 12.3669 70.6266 12.3162V12.3182H74.61C74.8145 12.3205 75.0174 12.2822 75.207 12.2056C75.3967 12.1289 75.5692 12.0154 75.7146 11.8716C75.8601 11.7278 75.9755 11.5566 76.0543 11.3678C76.1331 11.1791 76.1737 10.9766 76.1737 10.7721C76.1737 10.5675 76.1331 10.365 76.0543 10.1763C75.9755 9.98756 75.8601 9.81634 75.7146 9.67253C75.5692 9.52873 75.3967 9.41521 75.207 9.33855C75.0174 9.26189 74.8145 9.22361 74.61 9.22593H70.6266C70.148 9.23785 69.6932 9.26552 69.2623 9.30894C68.6786 9.36737 68.11 9.52987 67.5836 9.78874C66.5398 10.263 65.7054 11.1026 65.2378 12.1494C64.7313 13.3132 64.4791 14.5717 64.4981 15.8408L64.4961 22.1957H76.7393C77.1493 22.1957 77.5426 22.0328 77.8326 21.7429C78.1226 21.4529 78.2855 21.0596 78.2855 20.6495C78.2855 20.2394 78.1226 19.8461 77.8326 19.5562C77.5426 19.2662 77.1493 19.1033 76.7393 19.1033" fill="#717171"/>
<path id="Path 18645" d="M10.4803 12.7636C10.4803 14.2016 8.55393 17.134 6.77892 19.0831C5.00312 17.134 3.07817 14.2016 3.07817 12.7636C3.07817 10.5304 4.53106 9.08763 6.77932 9.08763C9.02757 9.08763 10.4807 10.5304 10.4807 12.7636M13.571 12.7286C13.571 8.81159 10.7172 5.96875 6.78548 5.96875C2.85376 5.96875 0 8.81198 0 12.7286C0 14.421 0.969325 16.482 2.96378 19.0261C3.82682 20.1231 4.75526 21.167 5.74406 22.1522C6.02295 22.4238 6.39687 22.5758 6.78617 22.5758C7.17547 22.5758 7.54939 22.4238 7.82828 22.1522C8.81713 21.1671 9.74559 20.1232 10.6086 19.0261C12.6016 16.482 13.571 14.421 13.571 12.7286Z" fill="#717171"/>
<path id="Path 18646" d="M49.9824 7.52902V21.0408C49.9824 21.4505 50.1452 21.8433 50.4348 22.133C50.7245 22.4227 51.1174 22.5854 51.5271 22.5854C51.9367 22.5854 52.3296 22.4227 52.6193 22.133C52.909 21.8433 53.0717 21.4505 53.0717 21.0408V7.52902C53.0717 7.11935 52.909 6.72647 52.6193 6.43679C52.3296 6.14711 51.9367 5.98438 51.5271 5.98438C51.1174 5.98438 50.7245 6.14711 50.4348 6.43679C50.1452 6.72647 49.9824 7.11935 49.9824 7.52902Z" fill="#717171"/>
<path id="Path 18647" d="M57.4395 7.52902V21.0408C57.4395 21.4505 57.6022 21.8433 57.8919 22.133C58.1815 22.4227 58.5744 22.5854 58.9841 22.5854C59.3938 22.5854 59.7866 22.4227 60.0763 22.133C60.366 21.8433 60.5287 21.4505 60.5287 21.0408V7.52902C60.5287 7.11935 60.366 6.72647 60.0763 6.43679C59.7866 6.14711 59.3938 5.98438 58.9841 5.98438C58.5744 5.98438 58.1815 6.14711 57.8919 6.43679C57.6022 6.72647 57.4395 7.11935 57.4395 7.52902Z" fill="#717171"/>
<path id="Path 18648" d="M53.7948 10.5235V21.0534C53.7878 21.2611 53.8226 21.4682 53.8972 21.6622C53.9718 21.8562 54.0847 22.0331 54.2292 22.1826C54.3736 22.332 54.5467 22.4509 54.738 22.532C54.9294 22.6132 55.1351 22.655 55.343 22.655C55.5508 22.655 55.7565 22.6132 55.9479 22.532C56.1392 22.4509 56.3123 22.332 56.4567 22.1826C56.6012 22.0331 56.7141 21.8562 56.7887 21.6622C56.8633 21.4682 56.8981 21.2611 56.8911 21.0534V10.5235C56.8981 10.3158 56.8633 10.1087 56.7887 9.91476C56.7141 9.72077 56.6012 9.54378 56.4567 9.39433C56.3123 9.24489 56.1392 9.12604 55.9479 9.04487C55.7565 8.9637 55.5508 8.92188 55.343 8.92188C55.1351 8.92188 54.9294 8.9637 54.738 9.04487C54.5467 9.12604 54.3736 9.24489 54.2292 9.39433C54.0847 9.54378 53.9718 9.72077 53.8972 9.91476C53.8226 10.1087 53.7878 10.3158 53.7948 10.5235Z" fill="#717171"/>
<path id="Path 18649" d="M46.2647 10.5381V21.0404C46.2624 21.2447 46.3007 21.4473 46.3772 21.6367C46.4538 21.826 46.5671 21.9983 46.7107 22.1435C46.8543 22.2888 47.0253 22.4041 47.2138 22.4828C47.4022 22.5615 47.6045 22.602 47.8087 22.602C48.0129 22.602 48.2152 22.5615 48.4036 22.4828C48.5921 22.4041 48.7631 22.2888 48.9067 22.1435C49.0503 21.9983 49.1636 21.826 49.2402 21.6367C49.3167 21.4473 49.355 21.2447 49.3526 21.0404V10.5381C49.355 10.3339 49.3167 10.1312 49.2402 9.94188C49.1636 9.75253 49.0503 9.58025 48.9067 9.43501C48.7631 9.28978 48.5921 9.17447 48.4036 9.09578C48.2152 9.01708 48.0129 8.97656 47.8087 8.97656C47.6045 8.97656 47.4022 9.01708 47.2138 9.09578C47.0253 9.17447 46.8543 9.28978 46.7107 9.43501C46.5671 9.58025 46.4538 9.75253 46.3772 9.94188C46.3007 10.1312 46.2624 10.3339 46.2647 10.5381Z" fill="#717171"/>
<path id="Path 18650" d="M33.4906 19.462C34.8398 19.462 35.7917 19.3543 36.3463 18.7395C36.8229 18.2099 37.087 17.4377 37.1385 16.4227H37.1365V7.49545C37.1365 7.08537 37.2994 6.69207 37.5894 6.4021C37.8794 6.11212 38.2727 5.94922 38.6828 5.94922C39.0928 5.94922 39.4861 6.11212 39.7761 6.4021C40.0661 6.69207 40.229 7.08537 40.229 7.49545V16.4235C40.2172 16.902 40.1895 17.3568 40.146 17.7881C40.0876 18.372 39.9251 18.9408 39.6662 19.4675C39.1918 20.5113 38.3521 21.3456 37.3053 21.8133C36.1125 22.332 34.8212 22.5851 33.5208 22.5552H33.4902C33.0799 22.5552 32.6865 22.3923 32.3964 22.1022C32.1063 21.8121 31.9434 21.4187 31.9434 21.0084C31.9434 20.5982 32.1063 20.2047 32.3964 19.9146C32.6865 19.6246 33.0799 19.4616 33.4902 19.4616" fill="#717171"/>
<path id="Path 18651" d="M44.1723 13.8121C43.7994 13.8125 43.439 13.6781 43.1575 13.4336L38.6796 9.55392L34.2016 13.4336C34.0481 13.5692 33.8693 13.673 33.6755 13.7391C33.4816 13.8052 33.2766 13.8322 33.0723 13.8186C32.868 13.805 32.6683 13.7511 32.485 13.6599C32.3016 13.5687 32.1381 13.4421 32.004 13.2874C31.8698 13.1326 31.7676 12.9529 31.7034 12.7584C31.6391 12.564 31.614 12.3588 31.6294 12.1546C31.6449 11.9504 31.7007 11.7513 31.7936 11.5687C31.8865 11.3862 32.0146 11.2239 32.1706 11.0912L37.664 6.33177C37.9459 6.08755 38.3064 5.95312 38.6794 5.95312C39.0524 5.95312 39.4129 6.08755 39.6948 6.33177L45.1883 11.0912C45.4274 11.298 45.5975 11.573 45.6758 11.8794C45.7541 12.1857 45.7368 12.5086 45.6262 12.8048C45.5156 13.101 45.317 13.3562 45.0571 13.5363C44.7972 13.7163 44.4884 13.8127 44.1723 13.8121Z" fill="#717171"/>
<path id="Path 18652" d="M24.7618 10.1087L22.6327 10.9717L20.504 10.1087L22.6327 9.24558L24.7618 10.1087ZM30.5409 10.1087C30.5409 9.79455 30.4471 9.48759 30.2716 9.22706C30.0962 8.96653 29.8469 8.7643 29.5559 8.64623L23.2267 6.08043C22.8465 5.92631 22.4212 5.92631 22.0409 6.08043L15.7114 8.64544C15.4204 8.76352 15.1712 8.96577 14.9957 9.22629C14.8203 9.48682 14.7266 9.79377 14.7266 10.1079C14.7266 10.422 14.8203 10.7289 14.9957 10.9894C15.1712 11.25 15.4204 11.4522 15.7114 11.5703L22.04 14.1361C22.4201 14.2905 22.8456 14.2905 23.2257 14.1361L29.5547 11.5703C29.8458 11.4523 30.095 11.25 30.2706 10.9895C30.4461 10.729 30.5398 10.422 30.5399 10.1079" fill="#717171"/>
<path id="Path 18653" d="M22.632 18.4104C22.4287 18.4104 22.2273 18.3711 22.039 18.2948L15.7104 15.729C15.518 15.6514 15.3428 15.5366 15.1948 15.3912C15.0468 15.2458 14.929 15.0727 14.8479 14.8817C14.7669 14.6907 14.7244 14.4856 14.7227 14.2782C14.721 14.0707 14.7603 13.865 14.8382 13.6727C14.9162 13.4804 15.0313 13.3054 15.1769 13.1577C15.3225 13.01 15.4959 12.8924 15.687 12.8117C15.8781 12.731 16.0833 12.6888 16.2908 12.6875C16.4982 12.6862 16.7039 12.7258 16.896 12.8041L22.632 15.1296L28.3679 12.8041C28.7557 12.6469 29.1902 12.6501 29.5756 12.8132C29.9611 12.9763 30.2659 13.2858 30.4232 13.6737C30.5804 14.0615 30.5772 14.496 30.4141 14.8814C30.251 15.2669 29.9415 15.5717 29.5537 15.729L23.2249 18.2948C23.0366 18.3711 22.8352 18.4104 22.632 18.4104Z" fill="#717171"/>
<path id="Path 18654" d="M22.632 22.5705C22.4287 22.5705 22.2273 22.5313 22.039 22.4549L15.7104 19.8891C15.518 19.8115 15.3428 19.6968 15.1948 19.5514C15.0468 19.406 14.929 19.2329 14.8479 19.0419C14.7669 18.8509 14.7244 18.6458 14.7227 18.4383C14.721 18.2309 14.7603 18.0251 14.8382 17.8329C14.9162 17.6406 15.0313 17.4656 15.1769 17.3179C15.3225 17.1701 15.4959 17.0525 15.687 16.9719C15.8781 16.8912 16.0833 16.849 16.2908 16.8477C16.4982 16.8464 16.7039 16.886 16.896 16.9643L22.632 19.2898L28.3679 16.9643C28.7557 16.807 29.1902 16.8103 29.5756 16.9734C29.9611 17.1364 30.2659 17.446 30.4232 17.8338C30.5804 18.2217 30.5772 18.6561 30.4141 19.0416C30.251 19.427 29.9415 19.7319 29.5537 19.8891L23.2249 22.4549C23.0366 22.5313 22.8352 22.5705 22.632 22.5705Z" fill="#717171"/>
</g>
<defs>
<clipPath id="clip0_0_32">
<rect width="160.863" height="22.6537" fill="white"/>
</clipPath>
</defs>
</svg>
